# xmcd CD database file
#
# Track frame offsets:
#	150
#	19262
#	43100
#	64220
#	75982
#	100010
#	124622
#	153755
#	177470
#	196225
#	212977
#	226400
#
# Disc length: 3226 seconds
#
# Revision: 0
# Processed by: cddbd v1.5PL3 Copyright (c) Steve Scherf et al.
# Submitted via: CDex 1.50
#
DISCID=980c980c
DTITLE=日向敏文 - Heavenly -Resort Music Series HAWAII-
DYEAR=2001
DGENRE=New Age
TTITLE0=Heavenly
TTITLE1=Under the Hula Moon
TTITLE2=Fire
TTITLE3=Legends of the Sea
TTITLE4=Sail Away
TTITLE5=Azure
TTITLE6=Port of Call
TTITLE7=Sandpiper
TTITLE8=Starlight
TTITLE9=Dolphin Dance
TTITLE10=Manta
TTITLE11=Voices of Nature
EXTD=YEAR: 2001
EXTT0=
EXTT1=
EXTT2=
EXTT3=
EXTT4=
EXTT5=
EXTT6=
EXTT7=
EXTT8=
EXTT9=
EXTT10=
EXTT11=
PLAYORDER=
